<?xml version="1.0" encoding="utf-8"?>
<!-- Generator: Adobe Illustrator 15.0.0, SVG Export Plug-In . SVG Version: 6.00 Build 0)  -->
<!DOCTYPE svg PUBLIC "-//W3C//DTD SVG 1.1//EN" "http://www.w3.org/Graphics/SVG/1.1/DTD/svg11.dtd">
<svg version="1.1" xmlns="http://www.w3.org/2000/svg" xmlns:xlink="http://www.w3.org/1999/xlink" x="0px" y="0px"
	 width="2777.953px" height="850.394px" viewBox="0 0 2777.953 850.394" style="enable-background:new 0 0 2777.953 850.394;"
	 xml:space="preserve">
<style type="text/css">
<![CDATA[
	.st0{fill:url(#SVGID_1_);}
	.st1{fill:url(#SVGID_2_);}
	.st2{fill:url(#SVGID_3_);}
	.st3{fill:url(#SVGID_4_);}
	.st4{fill:url(#SVGID_5_);}
	.st5{fill:url(#SVGID_6_);}
	.st6{fill:url(#SVGID_7_);}
	.st7{fill:url(#SVGID_8_);}
	.st8{fill:#333C43;}
	.st9{display:none;}
]]>
</style>
<g id="elements">
	<g>
		<g id="symbol">
			<path class="st8" d="M5.779,204.936c-40.949,7.979,149.556,44.357,137.125,19.967c-14.775-28.988-2.087-56.148,11.517-70.545
				c51.992-55.006,132.506-67.354,192.805-1.327c30.384,33.265,28.099,87.317,26.22,133.09
				c-3.891,94.792-22.281,178.593-22.087,299.443c0.082,50.2,15.035,118.965,32.665,174.496c0,0-138.055,50.224-225.935-10.801
				c-32.743-22.74-52.463-71.198-52.463-131.09c0-64.492,26.404-124.176,53.154-167.688c9.517-15.48,21.4-30.613,23.014-49.021
				c2.095-24.015,4.261-47.61,0.458-50.793c-10.792-9.027-32.144,19.235-63.051,51.68c-27.12,28.468-56.59,59.449-77.294,97.381
				C-19.139,611.543-1.244,772.35,131.859,827.776c34.075,14.196,95.357,26.18,144.608,21.629
				C354.763,842.169,419,810.479,419,810.479s15.404,22.085,41.418,31.94c44.696,16.933,191.55,1.634,191.55,1.634
				c-18.638-24.594-34.721-33.858-45.027-60.485c-60.928-157.419,11.318-357.721-36.084-550.804
				C545.065,127.713,488.429,74.4,424.998,46.124c-58.22-25.954-152.783-27.286-224.579,21.732
				C157.065,97.466,75.762,191.295,5.779,204.936z"/>
			<path class="st8" d="M251.636,198.508c0,18.53-15.574,33.544-34.789,33.544c-19.22,0-34.791-15.014-34.791-33.544
				c0-18.522,15.57-33.533,34.791-33.533C236.062,164.976,251.636,179.986,251.636,198.508z"/>
		</g>
		<g>
			<g id="experts">
				<path class="st8" d="M898.875,736.124c-15.583,0-29.819-2.468-42.707-7.4c-12.891-4.933-23.976-12.138-33.252-21.607
					c-9.279-9.467-16.466-21.206-21.565-35.212c-5.1-14-7.649-30.005-7.649-48.013c0-18.137,2.337-34.339,7.012-48.613
					c4.674-14.269,11.261-26.372,19.76-36.309c8.499-9.934,18.661-17.507,30.489-22.708c11.826-5.201,24.893-7.801,39.202-7.801
					c14.023,0,26.628,2.368,37.82,7.103c11.188,4.734,20.68,11.402,28.471,20.004c7.789,8.604,13.774,18.94,17.954,31.01
					c4.176,12.072,6.268,25.441,6.268,40.11v22.607H833.646c0.707,25.739,6.48,44.681,17.316,56.813
					c10.836,12.141,26.948,18.207,48.338,18.207c7.224,0,13.917-0.331,20.079-1c6.162-0.667,12.111-1.631,17.848-2.899
					c5.737-1.267,11.294-2.87,16.679-4.802c5.381-1.932,10.836-4.102,16.361-6.502v32.407c-5.667,2.535-11.229,4.735-16.679,6.603
					c-5.455,1.871-11.049,3.401-16.786,4.601c-5.737,1.202-11.686,2.067-17.848,2.603
					C912.792,735.854,906.099,736.124,898.875,736.124z M889.314,538.67c-16.148,0-28.933,5.201-38.352,15.604
					c-9.421,10.402-14.91,25.542-16.466,45.411h104.537c0-9.066-0.956-17.369-2.869-24.907c-1.912-7.531-4.887-13.97-8.923-19.305
					c-4.038-5.332-9.173-9.469-15.405-12.404C905.601,540.137,898.095,538.67,889.314,538.67z"/>
				<path class="st8" d="M1087.553,619.491l-75.003-107.029h43.982l53.118,82.022l53.118-82.022h43.982l-75.428,107.029
					l79.252,112.632h-43.982l-56.943-87.225l-57.368,87.225h-43.982L1087.553,619.491z"/>
				<path class="st8" d="M1357.965,736.124c-8.359,0-15.935-0.871-22.734-2.601c-6.8-1.731-12.928-4.031-18.379-6.903
					c-5.455-2.864-10.272-6.232-14.448-10.101c-4.18-3.869-7.898-7.936-11.155-12.204h-2.55c0.425,4.534,0.85,8.871,1.275,13.004
					c0.282,3.468,0.564,7.035,0.85,10.701c0.282,3.669,0.425,6.568,0.425,8.705v93.826h-38.67v-318.09h31.446l5.524,29.608h1.7
					c3.257-4.666,6.938-9.035,11.049-13.104c4.107-4.066,8.887-7.602,14.342-10.602c5.451-3.002,11.58-5.402,18.379-7.202
					c6.799-1.799,14.448-2.701,22.947-2.701c13.312,0,25.425,2.401,36.333,7.201c10.905,4.802,20.217,11.974,27.939,21.507
					c7.72,9.537,13.706,21.373,17.955,35.51c4.248,14.139,6.373,30.541,6.373,49.212c0,18.807-2.125,35.311-6.373,49.514
					c-4.249,14.204-10.235,26.11-17.955,35.712c-7.723,9.601-17.034,16.837-27.939,21.706
					C1383.39,733.689,1371.277,736.124,1357.965,736.124z M1350.528,538.67c-10.766,0-19.866,1.535-27.303,4.601
					c-7.436,3.068-13.458,7.737-18.06,14.003c-4.604,6.271-8.004,14.072-10.198,23.408c-2.198,9.335-3.437,20.341-3.719,33.009v8.2
					c0,13.474,0.956,25.443,2.868,35.909c1.913,10.475,5.169,19.277,9.774,26.408c4.601,7.138,10.729,12.541,18.379,16.208
					c7.648,3.669,17.21,5.498,28.684,5.498c19.122,0,33.179-7.265,42.176-21.805c8.995-14.533,13.492-35.41,13.492-62.619
					c0-27.737-4.497-48.479-13.492-62.215C1384.132,545.541,1369.934,538.67,1350.528,538.67z"/>
				<path class="st8" d="M1596.016,736.124c-15.582,0-29.819-2.468-42.707-7.4c-12.89-4.933-23.975-12.138-33.252-21.607
					c-9.279-9.467-16.467-21.206-21.565-35.212c-5.1-14-7.649-30.005-7.649-48.013c0-18.137,2.338-34.339,7.011-48.613
					c4.676-14.269,11.263-26.372,19.761-36.309c8.5-9.934,18.661-17.507,30.491-22.708c11.824-5.201,24.892-7.801,39.201-7.801
					c14.023,0,26.629,2.368,37.82,7.103c11.188,4.734,20.679,11.402,28.47,20.004c7.789,8.604,13.774,18.94,17.955,31.01
					c4.176,12.072,6.269,25.441,6.269,40.11v22.607h-147.031c0.707,25.739,6.48,44.681,17.316,56.813
					c10.834,12.141,26.947,18.207,48.338,18.207c7.223,0,13.915-0.331,20.076-1c6.164-0.667,12.113-1.631,17.849-2.899
					c5.737-1.267,11.294-2.87,16.681-4.802c5.382-1.932,10.836-4.102,16.359-6.502v32.407c-5.667,2.535-11.229,4.735-16.679,6.603
					c-5.454,1.871-11.049,3.401-16.786,4.601c-5.736,1.202-11.686,2.067-17.848,2.603
					C1609.934,735.854,1603.242,736.124,1596.016,736.124z M1586.457,538.67c-16.149,0-28.933,5.201-38.352,15.604
					c-9.423,10.402-14.909,25.542-16.467,45.411h104.537c0-9.066-0.958-17.369-2.87-24.907c-1.912-7.531-4.887-13.97-8.924-19.305
					c-4.037-5.332-9.173-9.469-15.404-12.404C1602.743,540.137,1595.237,538.67,1586.457,538.67z"/>
				<path class="st8" d="M1832.248,508.461c4.105,0,8.711,0.167,13.812,0.5c5.099,0.333,9.487,0.834,13.173,1.5l-5.1,33.608
					c-3.968-0.664-8.041-1.23-12.217-1.698c-4.181-0.468-8.11-0.702-11.794-0.702c-8.924,0-17.07,1.702-24.433,5.103
					c-7.367,3.399-13.705,8.272-19.018,14.604c-5.311,6.336-9.421,13.937-12.322,22.804c-2.906,8.872-4.356,18.707-4.356,29.511
					v118.433h-38.67V512.462h31.446l4.674,40.212h1.699c3.541-5.732,7.331-11.271,11.368-16.606
					c4.036-5.332,8.568-10.034,13.599-14.104c5.026-4.066,10.656-7.334,16.891-9.803
					C1817.232,509.695,1824.314,508.461,1832.248,508.461z"/>
				<path class="st8" d="M1987.724,706.314c2.551,0,5.418-0.132,8.605-0.4c3.187-0.265,6.268-0.6,9.242-1s5.701-0.864,8.182-1.4
					c2.476-0.529,4.355-0.999,5.63-1.401v27.611c-1.844,0.799-4.181,1.599-7.012,2.399c-2.835,0.801-5.949,1.5-9.351,2.1
					c-3.398,0.602-6.939,1.066-10.621,1.401c-3.686,0.332-7.299,0.5-10.837,0.5c-8.784,0-16.929-1.068-24.435-3.2
					c-7.509-2.133-13.989-5.804-19.441-11.005c-5.455-5.202-9.74-12.232-12.854-21.104c-3.118-8.869-4.676-20.04-4.676-33.51
					V539.868h-32.933v-16.203l32.933-15.604l16.574-46.013h22.309v50.414h58.643v27.406h-58.643v127.438
					c0,12.939,2.231,22.675,6.692,29.207C1970.196,703.049,1977.527,706.314,1987.724,706.314z"/>
				<path class="st8" d="M2211.024,671.904c0,10.672-2.056,20.009-6.163,28.011c-4.109,8.002-10.023,14.704-17.741,20.104
					c-7.722,5.404-17.034,9.438-27.94,12.104c-10.91,2.667-23.159,4.001-36.758,4.001c-15.441,0-28.685-1.168-39.732-3.501
					c-11.049-2.333-20.752-5.768-29.108-10.304v-33.207c4.388,2.134,9.274,4.232,14.661,6.3c5.381,2.071,11.048,3.9,16.998,5.504
					c5.949,1.599,12.074,2.899,18.379,3.899c6.3,0.999,12.568,1.499,18.803,1.499c9.206,0,17.031-0.73,23.478-2.198
					c6.444-1.468,11.687-3.566,15.724-6.304c4.037-2.73,6.975-6.066,8.818-10.002c1.838-3.932,2.761-8.304,2.761-13.104
					c0-4.131-0.709-7.867-2.124-11.203c-1.418-3.33-4.003-6.631-7.755-9.902c-3.755-3.268-8.892-6.567-15.404-9.904
					c-6.517-3.329-14.873-7.065-25.071-11.199c-10.2-4.136-19.373-8.206-27.516-12.205c-8.148-4.003-15.053-8.467-20.717-13.404
					c-5.666-4.934-10.022-10.635-13.066-17.104c-3.049-6.468-4.569-14.169-4.569-23.107c0-9.332,1.946-17.636,5.845-24.907
					c3.893-7.265,9.382-13.366,16.466-18.304c7.081-4.933,15.58-8.667,25.497-11.202c9.912-2.532,20.963-3.802,33.146-3.802
					c13.738,0,26.31,1.401,37.713,4.201c11.401,2.801,22.204,6.47,32.404,11.003l-13.388,29.407
					c-9.208-3.865-18.663-7.233-28.364-10.102c-9.704-2.867-19.585-4.301-29.64-4.301c-14.449,0-25.146,2.233-32.084,6.701
					c-6.941,4.471-10.41,10.837-10.41,19.105c0,4.672,0.812,8.738,2.443,12.202c1.625,3.471,4.424,6.736,8.393,9.803
					c3.964,3.071,9.275,6.173,15.936,9.304c6.656,3.134,14.941,6.638,24.859,10.502c10.197,4.003,19.297,8.003,27.303,12.006
					c8,3.999,14.836,8.503,20.503,13.501c5.665,5.004,9.985,10.705,12.96,17.107
					C2209.536,655.301,2211.024,662.975,2211.024,671.904z"/>
			</g>
			<g>
				<g>
					<linearGradient id="SVGID_1_" gradientUnits="userSpaceOnUse" x1="1785.8267" y1="396.8506" x2="1785.8267" y2="3.979039e-13">
						<stop  offset="0" style="stop-color:#172128"/>
						<stop  offset="1" style="stop-color:#333C43"/>
					</linearGradient>
					<path class="st0" d="M989.596,392.67c-7.504,0-13.17-1.045-17.006-3.135c-3.836-2.091-7.033-6.441-9.59-13.062l-5.626-14.892
						c-6.649,5.748-13.042,10.801-19.181,15.153c-6.138,4.355-12.491,8.059-19.053,11.104c-6.565,3.049-13.554,5.311-20.97,6.792
						c-7.417,1.479-15.644,2.222-24.679,2.222c-12.107,0-23.104-1.612-32.99-4.834c-9.89-3.221-18.286-7.968-25.191-14.238
						c-6.905-6.271-12.235-14.062-15.983-23.382c-3.752-9.316-5.626-20.073-5.626-32.266c0-9.577,2.386-19.418,7.161-29.522
						c4.771-10.099,13.042-19.288,24.807-27.562c11.764-8.271,27.62-15.193,47.567-20.77c19.947-5.572,45.094-8.707,75.443-9.405
						v-11.495c0-15.847-3.196-27.301-9.59-34.355s-15.472-10.581-27.236-10.581c-9.379,0-17.051,1.045-23.017,3.135
						c-5.97,2.09-11.296,4.441-15.983,7.054c-4.691,2.612-9.251,4.963-13.683,7.054c-4.435,2.09-9.718,3.135-15.855,3.135
						c-5.458,0-10.062-1.392-13.81-4.18c-3.752-2.784-6.821-6.095-9.207-9.928l-14.321-25.342
						c16.023-14.455,33.797-25.211,53.321-32.265c19.52-7.054,40.447-10.581,62.784-10.581c16.024,0,30.473,2.658,43.348,7.968
						c12.871,5.315,23.784,12.716,32.734,22.207c8.951,9.495,15.812,20.77,20.587,33.833c4.771,13.062,7.16,27.346,7.16,42.846
						V392.67H989.596z M898.553,343.292c10.229,0,19.181-1.829,26.853-5.486c7.672-3.658,15.428-9.577,23.272-17.765v-37.622
						c-15.855,0.698-28.898,2.09-39.128,4.18c-10.229,2.09-18.329,4.703-24.295,7.838c-5.969,3.135-10.101,6.707-12.403,10.711
						c-2.302,4.009-3.453,8.36-3.453,13.063c0,9.234,2.469,15.721,7.417,19.464C881.758,341.423,889.003,343.292,898.553,343.292z"
						/>
					<linearGradient id="SVGID_2_" gradientUnits="userSpaceOnUse" x1="1785.8267" y1="396.8506" x2="1785.8267" y2="3.979039e-13">
						<stop  offset="0" style="stop-color:#172128"/>
						<stop  offset="1" style="stop-color:#333C43"/>
					</linearGradient>
					<path class="st1" d="M1181.394,1.568V392.67h-79.279V1.568H1181.394z"/>
					<linearGradient id="SVGID_3_" gradientUnits="userSpaceOnUse" x1="1785.8267" y1="396.8506" x2="1785.8267" y2="3.979039e-13">
						<stop  offset="0" style="stop-color:#172128"/>
						<stop  offset="1" style="stop-color:#333C43"/>
					</linearGradient>
					<path class="st2" d="M1260.67,392.67V121.746h47.056c3.92,0,7.201,0.351,9.846,1.045c2.641,0.698,4.859,1.788,6.649,3.266
						c1.79,1.481,3.153,3.441,4.092,5.878c0.936,2.441,1.747,5.401,2.43,8.883l3.836,22.991
						c8.352-14.63,17.858-26.166,28.515-34.616c10.654-8.446,22.889-12.671,36.699-12.671c11.932,0,21.649,2.874,29.154,8.622
						l-5.115,59.566c-0.855,3.833-2.262,6.446-4.22,7.838c-1.962,1.396-4.647,2.09-8.056,2.09c-1.366,0-3.156-0.086-5.37-0.261
						c-2.219-0.172-4.521-0.392-6.905-0.653c-2.389-0.261-4.818-0.522-7.288-0.784c-2.474-0.261-4.731-0.392-6.777-0.392
						c-11.597,0-20.843,3.18-27.748,9.536c-6.905,6.36-12.747,15.112-17.519,26.256V392.67H1260.67z"/>
					<linearGradient id="SVGID_4_" gradientUnits="userSpaceOnUse" x1="1785.8267" y1="396.8506" x2="1785.8267" y2="3.979039e-13">
						<stop  offset="0" style="stop-color:#172128"/>
						<stop  offset="1" style="stop-color:#333C43"/>
					</linearGradient>
					<path class="st3" d="M1599.011,117.566c20.115,0,38.444,3.225,54.983,9.666c16.536,6.446,30.729,15.676,42.581,27.693
						c11.848,12.018,21.055,26.607,27.619,43.761c6.562,17.157,9.847,36.445,9.847,57.869c0,21.599-3.284,41.062-9.847,58.391
						c-6.564,17.333-15.771,32.049-27.619,44.153c-11.853,12.107-26.045,21.423-42.581,27.954
						c-16.539,6.531-34.868,9.798-54.983,9.798c-20.292,0-38.745-3.267-55.367-9.798c-16.623-6.531-30.944-15.847-42.965-27.954
						c-12.02-12.104-21.314-26.82-27.875-44.153c-6.565-17.329-9.846-36.792-9.846-58.391c0-21.423,3.28-40.711,9.846-57.869
						c6.561-17.153,15.855-31.743,27.875-43.761c12.021-12.018,26.342-21.248,42.965-27.693
						C1560.266,120.791,1578.719,117.566,1599.011,117.566z M1599.011,336.761c18.241,0,31.667-6.572,40.279-19.725
						c8.606-13.148,12.915-33.135,12.915-59.958c0-26.82-4.309-46.765-12.915-59.828c-8.612-13.062-22.038-19.594-40.279-19.594
						c-18.757,0-32.479,6.532-41.175,19.594c-8.694,13.063-13.042,33.008-13.042,59.828c0,26.824,4.348,46.81,13.042,59.958
						C1566.533,330.188,1580.254,336.761,1599.011,336.761z"/>
					<linearGradient id="SVGID_5_" gradientUnits="userSpaceOnUse" x1="1785.8267" y1="396.8506" x2="1785.8267" y2="3.979039e-13">
						<stop  offset="0" style="stop-color:#172128"/>
						<stop  offset="1" style="stop-color:#333C43"/>
					</linearGradient>
					<path class="st4" d="M1799.507,392.67V121.746h49.102c9.887,0,16.367,4.531,19.436,13.586l4.604,15.675
						c5.115-4.874,10.397-9.405,15.856-13.585c5.454-4.18,11.293-7.707,17.518-10.581c6.222-2.874,12.955-5.136,20.204-6.792
						c7.245-1.654,15.129-2.482,23.655-2.482c14.489,0,27.321,2.571,38.489,7.707c11.164,5.139,20.587,12.279,28.258,21.423
						c7.674,9.144,13.468,20.031,17.391,32.657c3.921,12.63,5.883,26.346,5.883,41.148V392.67h-79.279V220.501
						c0-13.234-2.984-23.554-8.95-30.959c-5.971-7.401-14.749-11.103-26.341-11.103c-8.696,0-16.88,1.918-24.552,5.748
						c-7.672,3.833-15.005,8.972-21.993,15.414V392.67H1799.507z"/>
					<linearGradient id="SVGID_6_" gradientUnits="userSpaceOnUse" x1="1785.8267" y1="396.8506" x2="1785.8267" y2="3.979039e-13">
						<stop  offset="0" style="stop-color:#172128"/>
						<stop  offset="1" style="stop-color:#333C43"/>
					</linearGradient>
					<path class="st5" d="M2205.872,47.549c0,6.446-1.278,12.5-3.835,18.157c-2.558,5.662-6.055,10.626-10.485,14.892
						c-4.436,4.27-9.591,7.667-15.473,10.189c-5.882,2.526-12.147,3.788-18.798,3.788c-6.48,0-12.53-1.261-18.156-3.788
						c-5.627-2.523-10.613-5.919-14.961-10.189c-4.348-4.266-7.76-9.23-10.229-14.892c-2.474-5.658-3.708-11.711-3.708-18.157
						c0-6.617,1.234-12.802,3.708-18.549c2.47-5.748,5.882-10.797,10.229-15.153c4.348-4.352,9.334-7.748,14.961-10.189
						C2144.75,1.221,2150.8,0,2157.281,0c6.65,0,12.916,1.221,18.798,3.658c5.882,2.441,11.037,5.837,15.473,10.189
						c4.431,4.355,7.928,9.405,10.485,15.153C2204.593,34.748,2205.872,40.932,2205.872,47.549z M2197.688,121.746V392.67h-79.278
						V121.746H2197.688z"/>
					<linearGradient id="SVGID_7_" gradientUnits="userSpaceOnUse" x1="1785.8267" y1="396.8506" x2="1785.8267" y2="3.979039e-13">
						<stop  offset="0" style="stop-color:#172128"/>
						<stop  offset="1" style="stop-color:#333C43"/>
					</linearGradient>
					<path class="st6" d="M2358.037,1.568v219.195h11.764c4.943,0,8.695-0.739,11.252-2.221c2.559-1.478,5.115-3.959,7.672-7.446
						l50.126-76.287c3.068-4.352,6.561-7.617,10.485-9.797c3.919-2.176,8.95-3.266,15.088-3.266h72.631l-68.539,96.404
						c-6.48,8.711-14.153,15.851-23.017,21.423c3.921,2.964,7.501,6.401,10.741,10.32c3.237,3.919,6.306,8.319,9.207,13.193
						l74.676,129.583h-71.607c-5.97,0-11.084-1-15.344-3.004c-4.264-2.001-7.845-5.527-10.741-10.581l-50.125-95.881
						c-2.39-4.352-4.859-7.185-7.416-8.491c-2.558-1.306-6.394-1.959-11.509-1.959h-15.344V392.67h-79.279V1.568H2358.037z"/>
					<linearGradient id="SVGID_8_" gradientUnits="userSpaceOnUse" x1="1785.8267" y1="396.8506" x2="1785.8267" y2="3.979039e-13">
						<stop  offset="0" style="stop-color:#172128"/>
						<stop  offset="1" style="stop-color:#333C43"/>
					</linearGradient>
					<path class="st7" d="M2758.517,181.052c-2.047,3.311-4.221,5.662-6.522,7.054c-2.302,1.396-5.242,2.09-8.823,2.09
						c-3.752,0-7.504-0.825-11.252-2.482c-3.752-1.653-7.801-3.438-12.148-5.356c-4.347-1.915-9.25-3.698-14.704-5.356
						c-5.458-1.653-11.681-2.482-18.669-2.482c-10.062,0-17.773,1.96-23.145,5.878c-5.37,3.919-8.056,9.364-8.056,16.329
						c0,5.054,1.747,9.234,5.243,12.541c3.492,3.311,8.14,6.229,13.938,8.752c5.794,2.527,12.359,4.923,19.691,7.185
						c7.328,2.266,14.834,4.792,22.505,7.577c7.672,2.788,15.173,6.054,22.505,9.797c7.329,3.748,13.894,8.361,19.691,13.847
						c5.795,5.486,10.441,12.148,13.938,19.986c3.492,7.838,5.243,17.243,5.243,28.216c0,13.414-2.39,25.779-7.161,37.099
						c-4.775,11.324-11.892,21.076-21.354,29.26c-9.462,8.188-21.142,14.545-35.035,19.072c-13.898,4.526-29.882,6.793-47.952,6.793
						c-9.038,0-18.073-0.874-27.107-2.613c-9.039-1.739-17.774-4.09-26.214-7.054c-8.439-2.959-16.239-6.486-23.4-10.581
						c-7.16-4.09-13.299-8.491-18.412-13.193l18.412-29.783c2.047-3.482,4.644-6.226,7.801-8.23c3.152-2,7.2-3.004,12.147-3.004
						c4.604,0,8.735,1.045,12.403,3.135c3.664,2.09,7.628,4.355,11.893,6.792c4.259,2.441,9.246,4.703,14.96,6.793
						c5.71,2.09,12.914,3.135,21.61,3.135c6.138,0,11.336-0.653,15.6-1.959c4.26-1.306,7.672-3.09,10.229-5.355
						c2.559-2.262,4.433-4.789,5.628-7.577c1.19-2.784,1.79-5.658,1.79-8.622c0-5.396-1.79-9.838-5.371-13.324
						c-3.58-3.482-8.271-6.487-14.065-9.014c-5.798-2.523-12.403-4.874-19.82-7.054c-7.415-2.176-14.96-4.658-22.632-7.446
						c-7.673-2.784-15.217-6.14-22.634-10.059c-7.416-3.918-14.026-8.883-19.819-14.892c-5.798-6.008-10.485-13.365-14.065-22.076
						c-3.581-8.708-5.371-19.243-5.371-31.612c0-11.495,2.174-22.423,6.522-32.788c4.347-10.361,10.867-19.464,19.563-27.301
						c8.694-7.837,19.604-14.063,32.733-18.68c13.127-4.612,28.473-6.923,46.033-6.923c9.547,0,18.797,0.874,27.748,2.612
						c8.951,1.743,17.346,4.18,25.191,7.315c7.84,3.135,15,6.837,21.481,11.104c6.477,4.27,12.187,8.928,17.134,13.977
						L2758.517,181.052z"/>
				</g>
			</g>
		</g>
	</g>
</g>
<g id="lines" class="st9">
</g>
</svg>
