<?xml version="1.0" encoding="utf-8"?>
<!-- Generator: Adobe Illustrator 15.0.0, SVG Export Plug-In . SVG Version: 6.00 Build 0)  -->
<!DOCTYPE svg PUBLIC "-//W3C//DTD SVG 1.1//EN" "http://www.w3.org/Graphics/SVG/1.1/DTD/svg11.dtd">
<svg version="1.1" id="Layer_1" xmlns="http://www.w3.org/2000/svg" xmlns:xlink="http://www.w3.org/1999/xlink" x="0px" y="0px"
	 width="2777.952px" height="850.393px" viewBox="340.158 113.386 2777.952 850.393"
	 style="enable-background:new 340.158 113.386 2777.952 850.393;" xml:space="preserve">
<style type="text/css">
<![CDATA[
	.st0{enable-background:new    ;}
	.st1{fill:url(#SVGID_1_);}
	.st2{fill:url(#SVGID_2_);}
	.st3{fill:url(#SVGID_3_);}
	.st4{fill:url(#SVGID_4_);}
	.st5{fill:url(#SVGID_5_);}
	.st6{fill:url(#SVGID_6_);}
	.st7{fill:url(#SVGID_7_);}
	.st8{fill:url(#SVGID_8_);}
	.st9{display:inline;fill:#333C43;}
	.st10{fill:#087473;}
	.st11{display:none;}
]]>
</style>
<g id="elements">
	<g>
		<g id="symbol">
			<path class="st10" d="M345.938,318.321c-40.949,7.979,149.556,44.357,137.125,19.967c-14.775-28.988-2.088-56.148,11.517-70.545
				c51.992-55.006,132.506-67.354,192.805-1.327c30.384,33.265,28.1,87.317,26.22,133.09
				c-3.891,94.792-22.28,178.593-22.087,299.443c0.082,50.201,15.035,118.965,32.665,174.496c0,0-138.055,50.225-225.935-10.801
				c-32.743-22.74-52.463-71.197-52.463-131.09c0-64.492,26.403-124.176,53.153-167.688c9.518-15.48,21.4-30.613,23.015-49.021
				c2.095-24.015,4.261-47.609,0.458-50.793c-10.792-9.026-32.145,19.235-63.051,51.681c-27.12,28.468-56.591,59.449-77.294,97.38
				c-61.046,111.814-43.149,272.623,89.953,328.049c34.075,14.197,95.357,26.18,144.608,21.629
				c78.295-7.236,142.533-38.926,142.533-38.926s15.404,22.086,41.418,31.939c44.696,16.934,191.55,1.635,191.55,1.635
				c-18.638-24.594-34.721-33.857-45.027-60.484c-60.928-157.42,11.318-357.721-36.084-550.805
				c-25.792-105.051-82.428-158.364-145.858-186.641c-58.221-25.954-152.783-27.286-224.579,21.732
				C497.223,210.852,415.919,304.681,345.938,318.321z"/>
			<path class="st10" d="M591.794,311.894c0,18.53-15.574,33.544-34.789,33.544c-19.22,0-34.791-15.014-34.791-33.544
				c0-18.522,15.57-33.533,34.791-33.533C576.22,278.361,591.794,293.372,591.794,311.894z"/>
		</g>
		<g>
			<g id="experts" class="st11">
				<path class="st9" d="M1239.032,849.509c-15.583,0-29.819-2.467-42.707-7.398c-12.892-4.934-23.977-12.139-33.252-21.607
					c-9.279-9.467-16.466-21.207-21.565-35.213c-5.1-14-7.648-30.004-7.648-48.012c0-18.139,2.337-34.34,7.012-48.613
					c4.674-14.27,11.261-26.373,19.76-36.309s18.661-17.508,30.489-22.709c11.826-5.201,24.893-7.801,39.202-7.801
					c14.022,0,26.628,2.367,37.819,7.104c11.188,4.732,20.681,11.4,28.472,20.004c7.789,8.604,13.773,18.939,17.953,31.01
					c4.177,12.072,6.269,25.441,6.269,40.109v22.607h-147.031c0.707,25.738,6.48,44.682,17.316,56.812
					c10.836,12.141,26.948,18.207,48.338,18.207c7.224,0,13.917-0.33,20.079-1c6.162-0.666,12.11-1.631,17.848-2.898
					s11.294-2.871,16.679-4.803c5.382-1.932,10.837-4.102,16.361-6.502v32.408c-5.667,2.535-11.229,4.734-16.679,6.602
					c-5.455,1.871-11.049,3.402-16.786,4.602c-5.737,1.203-11.687,2.066-17.849,2.604
					C1252.949,849.24,1246.256,849.509,1239.032,849.509z M1229.472,652.056c-16.147,0-28.933,5.201-38.352,15.604
					c-9.421,10.402-14.91,25.543-16.466,45.412h104.537c0-9.066-0.956-17.369-2.869-24.908c-1.912-7.531-4.887-13.969-8.923-19.305
					c-4.038-5.332-9.173-9.469-15.405-12.404C1245.759,653.521,1238.252,652.056,1229.472,652.056z"/>
				<path class="st9" d="M1427.711,732.876l-75.003-107.029h43.982l53.118,82.023l53.117-82.023h43.982l-75.428,107.029
					l79.252,112.633h-43.982l-56.943-87.225l-57.367,87.225h-43.982L1427.711,732.876z"/>
				<path class="st9" d="M1698.123,849.509c-8.359,0-15.936-0.871-22.734-2.6c-6.8-1.732-12.928-4.031-18.379-6.904
					c-5.455-2.863-10.271-6.23-14.447-10.1c-4.181-3.869-7.898-7.938-11.155-12.205h-2.55c0.425,4.535,0.85,8.871,1.274,13.004
					c0.282,3.469,0.564,7.035,0.851,10.701c0.281,3.67,0.425,6.568,0.425,8.705v93.826h-38.67v-318.09h31.445l5.524,29.607h1.7
					c3.257-4.666,6.938-9.035,11.049-13.104c4.106-4.066,8.887-7.602,14.342-10.602c5.451-3.002,11.58-5.402,18.379-7.203
					c6.799-1.799,14.448-2.701,22.947-2.701c13.312,0,25.425,2.402,36.333,7.201c10.904,4.803,20.217,11.975,27.939,21.508
					c7.719,9.537,13.705,21.373,17.953,35.51c4.248,14.139,6.373,30.541,6.373,49.213c0,18.807-2.125,35.311-6.373,49.514
					s-10.234,26.109-17.953,35.711c-7.725,9.602-17.035,16.838-27.939,21.707C1723.547,847.076,1711.436,849.509,1698.123,849.509z
					 M1690.686,652.056c-10.766,0-19.865,1.535-27.303,4.602c-7.436,3.066-13.458,7.736-18.06,14.002
					c-4.604,6.271-8.004,14.072-10.198,23.408c-2.198,9.336-3.438,20.342-3.719,33.01v8.199c0,13.475,0.956,25.443,2.868,35.908
					c1.913,10.477,5.169,19.277,9.773,26.408c4.602,7.139,10.729,12.541,18.379,16.209c7.648,3.668,17.21,5.498,28.685,5.498
					c19.122,0,33.178-7.266,42.176-21.805c8.994-14.533,13.492-35.41,13.492-62.619c0-27.738-4.498-48.479-13.492-62.215
					C1724.29,658.927,1710.092,652.056,1690.686,652.056z"/>
				<path class="st9" d="M1936.174,849.509c-15.582,0-29.818-2.467-42.707-7.398c-12.891-4.934-23.975-12.139-33.252-21.607
					c-9.279-9.467-16.467-21.207-21.564-35.213c-5.102-14-7.65-30.004-7.65-48.012c0-18.139,2.338-34.34,7.012-48.613
					c4.676-14.27,11.264-26.373,19.762-36.309c8.5-9.936,18.66-17.508,30.49-22.709c11.824-5.201,24.893-7.801,39.201-7.801
					c14.023,0,26.629,2.367,37.82,7.104c11.188,4.732,20.678,11.4,28.469,20.004c7.789,8.604,13.775,18.939,17.955,31.01
					c4.176,12.072,6.27,25.441,6.27,40.109v22.607h-147.031c0.707,25.738,6.48,44.682,17.316,56.812
					c10.834,12.141,26.947,18.207,48.338,18.207c7.223,0,13.914-0.33,20.076-1c6.164-0.666,12.113-1.631,17.85-2.898
					s11.293-2.871,16.68-4.803c5.383-1.932,10.836-4.102,16.359-6.502v32.408c-5.666,2.535-11.229,4.734-16.68,6.602
					c-5.453,1.871-11.049,3.402-16.785,4.602c-5.736,1.203-11.686,2.066-17.848,2.604
					C1950.092,849.24,1943.399,849.509,1936.174,849.509z M1926.614,652.056c-16.148,0-28.934,5.201-38.352,15.604
					c-9.424,10.402-14.91,25.543-16.467,45.412h104.537c0-9.066-0.959-17.369-2.871-24.908c-1.912-7.531-4.887-13.969-8.924-19.305
					c-4.037-5.332-9.172-9.469-15.404-12.404C1942.901,653.521,1935.395,652.056,1926.614,652.056z"/>
				<path class="st9" d="M2172.405,621.847c4.105,0,8.711,0.166,13.812,0.5c5.1,0.332,9.486,0.834,13.174,1.5l-5.102,33.607
					c-3.967-0.664-8.041-1.23-12.217-1.697c-4.18-0.469-8.109-0.703-11.793-0.703c-8.924,0-17.07,1.703-24.434,5.104
					c-7.367,3.398-13.705,8.271-19.018,14.604c-5.312,6.336-9.422,13.938-12.322,22.805c-2.906,8.871-4.355,18.707-4.355,29.512
					v118.432h-38.67V625.847h31.445l4.674,40.213h1.699c3.541-5.732,7.33-11.271,11.367-16.605
					c4.037-5.332,8.568-10.035,13.6-14.105c5.025-4.064,10.656-7.334,16.891-9.803
					C2157.389,623.082,2164.471,621.847,2172.405,621.847z"/>
				<path class="st9" d="M2327.881,819.701c2.553,0,5.418-0.133,8.605-0.4c3.188-0.266,6.268-0.6,9.242-1s5.701-0.865,8.182-1.4
					c2.477-0.529,4.355-0.998,5.631-1.4v27.611c-1.844,0.799-4.182,1.598-7.012,2.398c-2.836,0.801-5.949,1.5-9.352,2.1
					c-3.398,0.602-6.939,1.066-10.621,1.4c-3.686,0.332-7.299,0.5-10.838,0.5c-8.783,0-16.928-1.066-24.434-3.199
					c-7.51-2.133-13.99-5.805-19.441-11.006c-5.455-5.201-9.74-12.23-12.854-21.104c-3.119-8.869-4.678-20.039-4.678-33.51V653.253
					h-32.932V637.05l32.932-15.604l16.574-46.014h22.311v50.414h58.643v27.406h-58.643v127.439c0,12.938,2.23,22.674,6.691,29.207
					C2310.354,816.435,2317.686,819.701,2327.881,819.701z"/>
				<path class="st9" d="M2551.182,785.291c0,10.672-2.057,20.008-6.164,28.01s-10.021,14.705-17.74,20.105
					c-7.723,5.402-17.033,9.438-27.939,12.104c-10.91,2.666-23.16,4-36.758,4c-15.441,0-28.686-1.168-39.732-3.5
					c-11.049-2.334-20.752-5.768-29.107-10.305v-33.207c4.387,2.135,9.273,4.232,14.66,6.301c5.381,2.07,11.049,3.9,16.998,5.504
					c5.949,1.6,12.074,2.898,18.379,3.898c6.301,1,12.568,1.5,18.803,1.5c9.207,0,17.031-0.73,23.479-2.199
					c6.443-1.467,11.688-3.566,15.725-6.303c4.037-2.73,6.975-6.066,8.818-10.002c1.838-3.934,2.76-8.305,2.76-13.105
					c0-4.131-0.709-7.867-2.123-11.203c-1.418-3.33-4.004-6.631-7.756-9.9c-3.754-3.27-8.893-6.568-15.404-9.904
					c-6.516-3.33-14.873-7.066-25.07-11.199c-10.199-4.137-19.373-8.207-27.516-12.205c-8.148-4.004-15.053-8.467-20.717-13.404
					c-5.666-4.934-10.023-10.635-13.066-17.104c-3.049-6.469-4.57-14.17-4.57-23.107c0-9.332,1.947-17.637,5.846-24.906
					c3.893-7.266,9.383-13.367,16.467-18.305c7.08-4.934,15.58-8.668,25.496-11.201c9.912-2.533,20.963-3.803,33.146-3.803
					c13.738,0,26.311,1.4,37.713,4.201c11.4,2.801,22.203,6.469,32.404,11.002l-13.389,29.408
					c-9.207-3.865-18.662-7.234-28.363-10.104c-9.705-2.865-19.586-4.301-29.641-4.301c-14.449,0-25.146,2.234-32.084,6.701
					c-6.941,4.471-10.41,10.838-10.41,19.105c0,4.672,0.812,8.738,2.443,12.201c1.625,3.473,4.424,6.736,8.393,9.805
					c3.965,3.07,9.275,6.172,15.938,9.303c6.656,3.135,14.939,6.639,24.857,10.502c10.197,4.004,19.299,8.004,27.305,12.006
					c8,4,14.836,8.504,20.502,13.502c5.666,5.004,9.984,10.705,12.961,17.107C2549.694,768.687,2551.182,776.361,2551.182,785.291z"
					/>
			</g>
			<g>
				<g>
					
						<linearGradient id="SVGID_1_" gradientUnits="userSpaceOnUse" x1="1241.4639" y1="599.6196" x2="1241.4639" y2="996.4702" gradientTransform="matrix(1 0 0 -1 8.5 1109.8584)">
						<stop  offset="0" style="stop-color:#172128"/>
						<stop  offset="1" style="stop-color:#333C43"/>
					</linearGradient>
					<path class="st1" d="M1329.754,506.056c-7.504,0-13.17-1.045-17.006-3.135c-3.836-2.091-7.033-6.44-9.59-13.062l-5.626-14.893
						c-6.649,5.748-13.042,10.801-19.181,15.153c-6.139,4.354-12.491,8.059-19.054,11.104c-6.564,3.05-13.554,5.312-20.97,6.792
						c-7.417,1.479-15.645,2.223-24.679,2.223c-12.107,0-23.104-1.612-32.99-4.834c-9.89-3.222-18.286-7.969-25.191-14.238
						c-6.904-6.271-12.234-14.062-15.982-23.382c-3.752-9.316-5.626-20.073-5.626-32.267c0-9.576,2.386-19.417,7.161-29.521
						c4.771-10.099,13.042-19.288,24.807-27.562c11.764-8.271,27.62-15.193,47.567-20.77c19.946-5.572,45.094-8.707,75.442-9.405
						v-11.495c0-15.847-3.196-27.301-9.59-34.355c-6.394-7.054-15.472-10.581-27.235-10.581c-9.38,0-17.052,1.045-23.018,3.135
						c-5.97,2.09-11.296,4.441-15.982,7.054c-4.691,2.612-9.252,4.963-13.684,7.054c-4.435,2.09-9.718,3.135-15.854,3.135
						c-5.458,0-10.062-1.392-13.811-4.18c-3.752-2.784-6.821-6.095-9.207-9.928l-14.321-25.342
						c16.023-14.455,33.797-25.211,53.321-32.265c19.521-7.054,40.447-10.581,62.784-10.581c16.024,0,30.473,2.658,43.348,7.968
						c12.871,5.315,23.784,12.716,32.734,22.207c8.951,9.495,15.812,20.77,20.587,33.833c4.771,13.062,7.16,27.346,7.16,42.846
						v169.293h-36.315V506.056z M1238.711,456.678c10.229,0,19.182-1.829,26.854-5.485c7.672-3.658,15.428-9.577,23.271-17.766
						v-37.622c-15.854,0.698-28.897,2.09-39.128,4.18c-10.229,2.09-18.329,4.703-24.295,7.838
						c-5.969,3.135-10.101,6.707-12.403,10.711c-2.302,4.009-3.453,8.359-3.453,13.062c0,9.234,2.47,15.722,7.417,19.464
						C1221.916,454.809,1229.161,456.678,1238.711,456.678z"/>
					
						<linearGradient id="SVGID_2_" gradientUnits="userSpaceOnUse" x1="1473.4121" y1="599.6206" x2="1473.4121" y2="996.4722" gradientTransform="matrix(1 0 0 -1 8.5 1109.8584)">
						<stop  offset="0" style="stop-color:#172128"/>
						<stop  offset="1" style="stop-color:#333C43"/>
					</linearGradient>
					<path class="st2" d="M1521.552,114.954v391.102h-79.278V114.954H1521.552z"/>
					
						<linearGradient id="SVGID_3_" gradientUnits="userSpaceOnUse" x1="1676.4668" y1="599.6206" x2="1676.4668" y2="996.4712" gradientTransform="matrix(1 0 0 -1 8.5 1109.8584)">
						<stop  offset="0" style="stop-color:#172128"/>
						<stop  offset="1" style="stop-color:#333C43"/>
					</linearGradient>
					<path class="st3" d="M1600.828,506.056V235.132h47.056c3.92,0,7.201,0.351,9.847,1.045c2.641,0.698,4.858,1.788,6.648,3.266
						c1.79,1.481,3.153,3.441,4.092,5.878c0.937,2.441,1.747,5.401,2.431,8.883l3.836,22.991
						c8.352-14.63,17.858-26.166,28.515-34.616c10.654-8.446,22.889-12.671,36.699-12.671c11.932,0,21.648,2.874,29.154,8.622
						l-5.115,59.566c-0.855,3.833-2.262,6.446-4.221,7.838c-1.961,1.396-4.646,2.09-8.057,2.09c-1.365,0-3.154-0.086-5.369-0.261
						c-2.219-0.172-4.521-0.392-6.904-0.653c-2.391-0.261-4.818-0.522-7.289-0.784c-2.473-0.261-4.73-0.392-6.777-0.392
						c-11.596,0-20.842,3.18-27.748,9.536c-6.905,6.36-12.747,15.112-17.519,26.256v164.331L1600.828,506.056L1600.828,506.056z"/>
					
						<linearGradient id="SVGID_4_" gradientUnits="userSpaceOnUse" x1="1930.1587" y1="599.6206" x2="1930.1587" y2="996.4726" gradientTransform="matrix(1 0 0 -1 8.5 1109.8584)">
						<stop  offset="0" style="stop-color:#172128"/>
						<stop  offset="1" style="stop-color:#333C43"/>
					</linearGradient>
					<path class="st4" d="M1939.168,230.952c20.115,0,38.445,3.225,54.984,9.666c16.535,6.446,30.729,15.676,42.58,27.693
						c11.848,12.018,21.055,26.607,27.619,43.761c6.562,17.157,9.848,36.445,9.848,57.869c0,21.599-3.285,41.062-9.848,58.391
						c-6.564,17.333-15.771,32.049-27.619,44.153c-11.854,12.106-26.045,21.423-42.58,27.954
						c-16.539,6.53-34.869,9.798-54.984,9.798c-20.291,0-38.744-3.268-55.367-9.798c-16.623-6.531-30.943-15.848-42.965-27.954
						c-12.02-12.104-21.312-26.82-27.875-44.153c-6.564-17.329-9.846-36.792-9.846-58.391c0-21.423,3.281-40.711,9.846-57.869
						c6.562-17.153,15.855-31.743,27.875-43.761c12.021-12.018,26.342-21.248,42.965-27.693
						C1900.424,234.177,1918.877,230.952,1939.168,230.952z M1939.168,450.146c18.242,0,31.668-6.572,40.279-19.726
						c8.605-13.148,12.916-33.135,12.916-59.958c0-26.82-4.311-46.765-12.916-59.828c-8.611-13.062-22.037-19.594-40.279-19.594
						c-18.756,0-32.479,6.532-41.174,19.594c-8.695,13.063-13.043,33.008-13.043,59.828c0,26.824,4.348,46.81,13.043,59.958
						C1906.69,443.574,1920.413,450.146,1939.168,450.146z"/>
					
						<linearGradient id="SVGID_5_" gradientUnits="userSpaceOnUse" x1="2251.3638" y1="599.6206" x2="2251.3638" y2="996.4712" gradientTransform="matrix(1 0 0 -1 8.5 1109.8584)">
						<stop  offset="0" style="stop-color:#172128"/>
						<stop  offset="1" style="stop-color:#333C43"/>
					</linearGradient>
					<path class="st5" d="M2139.665,506.056V235.132h49.104c9.887,0,16.365,4.531,19.436,13.586l4.604,15.675
						c5.115-4.874,10.396-9.405,15.855-13.585c5.455-4.18,11.293-7.707,17.52-10.581c6.221-2.874,12.955-5.136,20.203-6.792
						c7.246-1.654,15.129-2.482,23.654-2.482c14.49,0,27.322,2.571,38.49,7.707c11.164,5.139,20.586,12.279,28.258,21.423
						c7.674,9.144,13.469,20.031,17.391,32.657c3.922,12.63,5.883,26.346,5.883,41.148v172.167h-79.279V333.887
						c0-13.234-2.982-23.554-8.949-30.959c-5.971-7.401-14.748-11.103-26.342-11.103c-8.695,0-16.879,1.918-24.551,5.748
						c-7.672,3.833-15.006,8.972-21.994,15.414v193.069H2139.665L2139.665,506.056z"/>
					
						<linearGradient id="SVGID_6_" gradientUnits="userSpaceOnUse" x1="2489.7075" y1="599.6206" x2="2489.7075" y2="996.4722" gradientTransform="matrix(1 0 0 -1 8.5 1109.8584)">
						<stop  offset="0" style="stop-color:#172128"/>
						<stop  offset="1" style="stop-color:#333C43"/>
					</linearGradient>
					<path class="st6" d="M2546.03,160.935c0,6.446-1.279,12.5-3.836,18.157c-2.559,5.662-6.055,10.626-10.484,14.892
						c-4.436,4.27-9.592,7.667-15.473,10.189c-5.883,2.526-12.148,3.788-18.799,3.788c-6.48,0-12.529-1.261-18.156-3.788
						c-5.627-2.523-10.613-5.919-14.961-10.189c-4.348-4.266-7.76-9.23-10.229-14.892c-2.475-5.658-3.709-11.711-3.709-18.157
						c0-6.617,1.234-12.802,3.709-18.549c2.471-5.748,5.883-10.797,10.229-15.153c4.348-4.352,9.334-7.748,14.961-10.189
						c5.627-2.437,11.676-3.658,18.156-3.658c6.65,0,12.916,1.221,18.799,3.658c5.881,2.441,11.037,5.837,15.473,10.189
						c4.43,4.355,7.928,9.405,10.484,15.153C2544.75,148.133,2546.03,154.318,2546.03,160.935z M2537.846,235.132v270.924h-79.277
						V235.132H2537.846z"/>
					
						<linearGradient id="SVGID_7_" gradientUnits="userSpaceOnUse" x1="2741.0981" y1="599.6206" x2="2741.0981" y2="996.4722" gradientTransform="matrix(1 0 0 -1 8.5 1109.8584)">
						<stop  offset="0" style="stop-color:#172128"/>
						<stop  offset="1" style="stop-color:#333C43"/>
					</linearGradient>
					<path class="st7" d="M2698.194,114.954v219.195h11.764c4.943,0,8.695-0.739,11.252-2.221c2.561-1.478,5.115-3.959,7.672-7.446
						l50.127-76.287c3.068-4.352,6.561-7.617,10.484-9.797c3.92-2.176,8.951-3.266,15.088-3.266h72.631l-68.539,96.404
						c-6.479,8.711-14.152,15.851-23.016,21.423c3.92,2.964,7.5,6.401,10.74,10.32c3.236,3.919,6.307,8.319,9.207,13.193
						l74.676,129.583h-71.607c-5.969,0-11.084-1-15.344-3.004c-4.264-2.001-7.844-5.526-10.74-10.581l-50.125-95.881
						c-2.391-4.352-4.859-7.185-7.416-8.491c-2.559-1.306-6.395-1.959-11.51-1.959h-15.344v119.917h-79.279V114.954H2698.194z"/>
					
						<linearGradient id="SVGID_8_" gradientUnits="userSpaceOnUse" x1="3006.2935" y1="599.6196" x2="3006.2935" y2="996.4702" gradientTransform="matrix(1 0 0 -1 8.5 1109.8584)">
						<stop  offset="0" style="stop-color:#172128"/>
						<stop  offset="1" style="stop-color:#333C43"/>
					</linearGradient>
					<path class="st8" d="M3098.674,294.438c-2.047,3.311-4.221,5.662-6.521,7.054c-2.301,1.396-5.242,2.09-8.822,2.09
						c-3.752,0-7.504-0.825-11.252-2.482c-3.752-1.653-7.801-3.438-12.148-5.356c-4.348-1.915-9.25-3.698-14.703-5.356
						c-5.459-1.653-11.682-2.482-18.67-2.482c-10.062,0-17.773,1.96-23.145,5.878c-5.371,3.919-8.057,9.364-8.057,16.329
						c0,5.054,1.748,9.234,5.244,12.541c3.49,3.311,8.139,6.229,13.938,8.752c5.793,2.527,12.359,4.923,19.691,7.185
						c7.326,2.266,14.834,4.792,22.504,7.577c7.672,2.788,15.174,6.054,22.506,9.797c7.328,3.748,13.893,8.361,19.689,13.847
						c5.795,5.486,10.441,12.148,13.939,19.986c3.49,7.838,5.242,17.243,5.242,28.216c0,13.414-2.391,25.779-7.16,37.099
						c-4.775,11.324-11.893,21.076-21.355,29.26c-9.461,8.188-21.141,14.545-35.035,19.072c-13.896,4.525-29.881,6.793-47.951,6.793
						c-9.037,0-18.072-0.874-27.107-2.613c-9.039-1.739-17.773-4.09-26.213-7.054c-8.439-2.959-16.24-6.486-23.4-10.581
						c-7.16-4.09-13.299-8.491-18.412-13.193l18.412-29.783c2.047-3.481,4.645-6.226,7.801-8.229c3.152-2,7.199-3.004,12.146-3.004
						c4.605,0,8.736,1.045,12.404,3.135c3.664,2.09,7.627,4.355,11.893,6.792c4.26,2.441,9.246,4.703,14.959,6.793
						c5.711,2.09,12.914,3.135,21.611,3.135c6.137,0,11.336-0.652,15.6-1.959c4.26-1.306,7.672-3.09,10.229-5.354
						c2.561-2.263,4.434-4.789,5.629-7.577c1.189-2.784,1.789-5.658,1.789-8.622c0-5.396-1.789-9.838-5.371-13.324
						c-3.58-3.482-8.27-6.487-14.064-9.014c-5.799-2.523-12.402-4.874-19.82-7.054c-7.414-2.176-14.959-4.658-22.631-7.446
						c-7.674-2.784-15.219-6.14-22.635-10.059c-7.416-3.918-14.025-8.883-19.818-14.892c-5.799-6.008-10.486-13.365-14.066-22.076
						c-3.58-8.708-5.371-19.243-5.371-31.612c0-11.495,2.174-22.423,6.523-32.788c4.346-10.361,10.865-19.464,19.562-27.301
						c8.693-7.837,19.604-14.063,32.732-18.68c13.127-4.612,28.473-6.923,46.033-6.923c9.547,0,18.797,0.874,27.748,2.612
						c8.951,1.743,17.346,4.18,25.191,7.315c7.84,3.135,15,6.837,21.48,11.104c6.477,4.27,12.188,8.928,17.135,13.977
						L3098.674,294.438z"/>
				</g>
			</g>
		</g>
	</g>
</g>
<g class="st0">
	<path class="st10" d="M1297.192,790.872c0,10.549-1.913,19.775-5.735,27.686c-3.825,7.91-9.329,14.534-16.513,19.874
		c-7.187,5.339-15.854,9.328-26.004,11.964c-10.153,2.636-21.555,3.955-34.211,3.955c-14.371,0-26.697-1.155-36.98-3.461
		c-10.283-2.305-19.315-5.7-27.092-10.184v-32.828c4.085,2.111,8.633,4.188,13.645,6.229c5.009,2.046,10.283,3.856,15.82,5.438
		s11.238,2.867,17.106,3.856c5.864,0.988,11.698,1.483,17.501,1.483c8.568,0,15.851-0.724,21.852-2.176
		c5.998-1.449,10.877-3.525,14.634-6.229c3.758-2.7,6.492-5.997,8.207-9.888c1.712-3.887,2.571-8.207,2.571-12.953
		c0-4.084-0.661-7.776-1.978-11.074c-1.319-3.293-3.727-6.557-7.218-9.788c-3.495-3.229-8.274-6.492-14.337-9.789
		c-6.065-3.294-13.843-6.986-23.335-11.074c-9.492-4.085-18.03-8.108-25.609-12.063c-7.583-3.955-14.009-8.37-19.281-13.249
		c-5.274-4.876-9.329-10.512-12.162-16.908c-2.837-6.393-4.252-14.006-4.252-22.841c0-9.226,1.811-17.433,5.438-24.62
		c3.624-7.184,8.732-13.215,15.326-18.095c6.591-4.875,14.501-8.567,23.73-11.074c9.227-2.502,19.51-3.757,30.85-3.757
		c12.786,0,24.487,1.384,35.101,4.153c10.611,2.768,20.666,6.396,30.158,10.876l-12.458,29.069
		c-8.571-3.821-17.372-7.149-26.4-9.986c-9.032-2.833-18.227-4.252-27.586-4.252c-13.447,0-23.403,2.21-29.861,6.625
		c-6.461,4.419-9.69,10.713-9.69,18.886c0,4.616,0.757,8.637,2.274,12.063c1.514,3.43,4.119,6.658,7.812,9.689
		c3.689,3.034,8.633,6.1,14.832,9.195c6.195,3.1,13.908,6.561,23.137,10.383c9.492,3.955,17.961,7.91,25.411,11.865
		c7.447,3.955,13.809,8.404,19.083,13.348c5.271,4.944,9.294,10.58,12.063,16.908S1297.192,782.041,1297.192,790.872z"/>
	<path class="st10" d="M1419.292,824.885c2.373,0,5.043-0.13,8.009-0.396c2.967-0.262,5.834-0.593,8.603-0.988
		s5.305-0.855,7.614-1.385c2.305-0.524,4.053-0.988,5.24-1.384v27.29c-1.715,0.791-3.891,1.582-6.525,2.373
		c-2.639,0.791-5.538,1.483-8.702,2.076c-3.164,0.594-6.461,1.054-9.888,1.385c-3.43,0.327-6.792,0.494-10.085,0.494
		c-8.176,0-15.755-1.057-22.742-3.164c-6.989-2.107-13.021-5.734-18.095-10.877c-5.077-5.141-9.065-12.094-11.964-20.862
		c-2.901-8.767-4.351-19.807-4.351-33.124V660.354h-30.652v-16.019l30.652-15.425l15.425-45.483h20.764v49.834h54.58v27.093h-54.58
		v125.969c0,12.789,2.077,22.414,6.229,28.872C1402.978,821.656,1409.8,824.885,1419.292,824.885z"/>
	<path class="st10" d="M1671.513,741.432c0,18.064-2.209,34.113-6.624,48.153c-4.419,14.041-10.747,25.841-18.984,35.398
		c-8.241,9.56-18.228,16.843-29.96,21.852c-11.735,5.009-24.917,7.515-39.551,7.515c-13.58,0-26.104-2.506-37.573-7.515
		s-21.392-12.292-29.762-21.852c-8.374-9.558-14.899-21.357-19.578-35.398c-4.681-14.04-7.021-30.089-7.021-48.153
		c0-17.927,2.207-33.847,6.625-47.757c4.416-13.908,10.71-25.641,18.886-35.2c8.173-9.558,18.159-16.81,29.96-21.753
		c11.797-4.944,25.016-7.416,39.649-7.416c13.577,0,26.104,2.472,37.573,7.416c11.47,4.943,21.389,12.195,29.762,21.753
		c8.371,9.56,14.896,21.292,19.578,35.2C1669.171,707.585,1671.513,723.505,1671.513,741.432z M1519.638,741.432
		c0,27.557,4.515,48.286,13.547,62.194c9.028,13.91,23.696,20.862,44,20.862c20.301,0,34.903-6.952,43.803-20.862
		c8.898-13.908,13.348-34.638,13.348-62.194c0-27.552-4.517-48.152-13.546-61.798c-9.031-13.645-23.699-20.468-44-20.468
		c-20.304,0-34.903,6.823-43.803,20.468C1524.088,693.28,1519.638,713.88,1519.638,741.432z"/>
	<path class="st10" d="M1825.846,629.306c3.822,0,8.108,0.167,12.854,0.494c4.746,0.331,8.831,0.825,12.261,1.483l-4.746,33.223
		c-3.692-0.658-7.483-1.218-11.371-1.681c-3.89-0.461-7.549-0.692-10.975-0.692c-8.307,0-15.889,1.681-22.742,5.043
		c-6.856,3.361-12.755,8.176-17.699,14.436c-4.943,6.264-8.769,13.778-11.47,22.544c-2.703,8.77-4.054,18.49-4.054,29.169v117.07
		h-35.991V633.261h29.268l4.351,39.749h1.582c3.294-5.667,6.822-11.14,10.58-16.414c3.757-5.271,7.975-9.919,12.656-13.941
		c4.678-4.021,9.918-7.249,15.721-9.69C1811.871,630.527,1818.461,629.306,1825.846,629.306z"/>
	<path class="st10" d="M1982.949,854.35c-14.504,0-27.754-2.441-39.748-7.316c-11.999-4.876-22.315-11.995-30.949-21.357
		c-8.636-9.359-15.326-20.963-20.072-34.805c-4.746-13.844-7.119-29.664-7.119-47.461c0-17.928,2.176-33.946,6.526-48.055
		c4.351-14.105,10.481-26.069,18.392-35.893c7.91-9.819,17.368-17.303,28.377-22.445c11.007-5.141,23.168-7.712,36.486-7.712
		c13.051,0,24.783,2.342,35.199,7.021c10.413,4.681,19.247,11.271,26.5,19.775c7.248,8.503,12.819,18.722,16.71,30.651
		c3.887,11.934,5.833,25.149,5.833,39.649v22.347h-136.846c0.658,25.445,6.032,44.167,16.117,56.162
		c10.086,11.998,25.081,17.995,44.989,17.995c6.724,0,12.953-0.327,18.688-0.988c5.735-0.658,11.272-1.613,16.611-2.867
		c5.34-1.252,10.512-2.834,15.524-4.746c5.008-1.91,10.085-4.055,15.227-6.428v32.037c-5.274,2.506-10.45,4.681-15.523,6.525
		c-5.077,1.848-10.283,3.361-15.623,4.549c-5.339,1.186-10.876,2.042-16.611,2.57C1995.902,854.084,1989.672,854.35,1982.949,854.35
		z M1974.05,659.167c-15.029,0-26.929,5.143-35.695,15.426c-8.769,10.283-13.877,25.247-15.326,44.89h97.295
		c0-8.964-0.89-17.171-2.669-24.62c-1.78-7.447-4.549-13.809-8.306-19.084c-3.758-5.271-8.538-9.358-14.338-12.26
		C1989.208,660.62,1982.222,659.167,1974.05,659.167z"/>
</g>
<g id="lines" class="st11">
</g>
</svg>
